<?xml version="1.0" standalone="no"?>
<!DOCTYPE svg PUBLIC "-//W3C//DTD SVG 20010904//EN"
 "http://www.w3.org/TR/2001/REC-SVG-20010904/DTD/svg10.dtd">
<svg version="1.0" xmlns="http://www.w3.org/2000/svg"
 width="200.000000pt" height="200.000000pt" viewBox="0 0 200.000000 200.000000"
 preserveAspectRatio="xMidYMid meet">
<metadata>
Created by potrace 1.16, written by Peter Selinger 2001-2019
</metadata>
<g transform="translate(0.000000,200.000000) scale(0.100000,-0.100000)"
fill="#000000" stroke="none">
<path d="M810 1885 c-269 -60 -497 -237 -619 -480 -64 -130 -83 -208 -88 -380
-4 -137 -2 -158 21 -249 83 -322 332 -570 653 -652 115 -29 299 -33 413 -9
276 58 507 242 631 503 99 207 106 493 18 722 -74 192 -244 375 -439 471 -128
63 -204 81 -375 85 -107 3 -169 -1 -215 -11z m402 -39 c421 -107 695 -496 656
-933 -29 -335 -269 -634 -594 -742 -319 -106 -659 -22 -899 223 -164 168 -245
368 -245 609 0 145 25 251 90 382 88 179 216 306 395 395 134 66 228 88 381
89 97 1 141 -4 216 -23z"/>
<path d="M748 1623 c-10 -2 -18 -9 -18 -14 0 -5 -3 -8 -7 -7 -16 3 -63 -15
-63 -24 0 -5 5 -19 11 -31 12 -21 11 -21 -8 -4 -11 9 -26 17 -33 17 -16 0
-131 -74 -154 -98 -14 -17 -14 -21 7 -50 12 -17 26 -32 31 -32 16 0 71 53 77
74 3 11 2 31 -2 44 -12 32 -2 27 16 -8 10 -20 20 -27 31 -23 8 3 13 11 10 18
-3 8 2 11 12 8 25 -6 152 54 152 72 0 8 -4 15 -10 15 -5 0 -10 11 -10 25 0 25
-7 27 -42 18z"/>
<path d="M1273 1588 c3 -12 1 -30 -5 -41 -7 -15 -7 -22 3 -28 21 -13 26 -11
33 16 4 14 12 25 20 25 25 0 27 -14 4 -32 -23 -18 -23 -18 -3 -33 11 -9 26
-14 35 -13 8 2 20 -6 25 -17 6 -11 19 -22 30 -24 11 -2 25 -10 31 -19 6 -8 16
-12 22 -8 8 4 10 2 6 -7 -12 -31 20 -30 48 2 28 32 30 51 3 51 -7 0 -16 7 -19
16 -3 9 -12 14 -18 12 -7 -3 -17 5 -23 16 -14 28 -53 33 -70 9 -7 -10 -17 -14
-22 -10 -4 5 0 14 10 21 9 7 17 18 17 24 0 10 -38 28 -52 24 -5 -1 -8 2 -8 6
0 9 -44 32 -62 32 -6 0 -8 -9 -5 -22z"/>
<path d="M361 1370 c6 -16 28 -49 50 -74 45 -51 139 -114 139 -92 0 7 18 26
40 41 22 15 40 31 40 35 0 8 -250 120 -268 120 -8 0 -8 -9 -1 -30z"/>
<path d="M1530 1355 c-52 -25 -113 -52 -134 -60 l-39 -16 29 -15 c16 -8 41
-27 56 -41 29 -28 29 -28 101 26 70 52 133 152 95 150 -7 0 -56 -20 -108 -44z"/>
</g>
</svg>
